# File created by Blade
# Date/Time:  Wed Apr 08 14:10:35 2015
# Frame Rate: 120.000 fps
#------------------------------------------------------
:FULLY-SPECIFIED
:DEGREES
816
root 1.252280 32.984226 14.119013 10.325918 -0.093567 -1.343735
Spine -13.414469 -6.453034 0.308283
Head 8.716955 -2.565444 -0.997806
LeftShoulder -23.698006 41.222716 18.693479
LeftArm 58.796025 -58.819941 -60.902438
LeftForeArm 11.190977 0.000000 -2.268836
LeftHand 1.981249 -0.000000 4.529276
LeftHandThumb1 -26.253704 0.000000 33.147579
RightShoulder -8.057916 3.263677 -31.690599
RightArm 12.279123 14.596159 38.675145
RightForeArm -15.697008 -0.000000 1.274301
RightHand 0.622276 -0.000000 1.420815
RightHandThumb1 -24.326973 -0.000000 -32.862282
LeftUpLeg -6.107477 -7.161757 1.540444
LeftLeg -0.601619 -0.000000 0.000000
LeftFoot -7.621352 9.448910 -17.406579
LeftToeBase -6.226559 -0.000000 0.000000
RightUpLeg -4.310524 7.334950 3.222384
RightLeg -3.756343 -0.000000 0.000000
RightFoot -5.520137 -14.050231 7.414342
RightToeBase -3.587850 -0.000000 0.000000
817
root 1.243822 32.983883 14.131563 10.329885 -0.059816 -1.310720
Spine -13.453540 -6.446886 0.297122
Head 8.738780 -2.605527 -0.973218
LeftShoulder -23.651874 41.200459 18.723672
LeftArm 58.829006 -58.822266 -60.938604
LeftForeArm 11.119766 -0.000000 -2.294728
LeftHand 1.982426 -0.000000 4.444056
LeftHandThumb1 -26.253704 0.000000 33.147579
RightShoulder -8.101903 3.244625 -31.676230
RightArm 12.269670 14.595482 38.615996
RightForeArm -15.635637 -0.000000 1.283671
RightHand 0.442959 -0.000000 1.655471
RightHandThumb1 -24.326973 -0.000000 -32.862282
LeftUpLeg -6.081683 -7.172835 1.526117
LeftLeg -0.625894 -0.000000 0.000000
LeftFoot -7.609672 9.415230 -17.435700
LeftToeBase -6.183203 -0.000000 0.000000
RightUpLeg -4.273398 7.306408 3.213357
RightLeg -3.799411 -0.000000 0.000000
RightFoot -5.437515 -14.089293 7.292548
RightToeBase -3.858708 -0.000000 0.000000
818
root 1.233283 32.983402 14.142735 10.350678 -0.028043 -1.301155
Spine -13.515412 -6.445767 0.316464
Head 8.781275 -2.627749 -0.969608
LeftShoulder -23.622171 41.204346 18.736935
LeftArm 58.875006 -58.836063 -60.991118
LeftForeArm 11.025045 0.000000 -2.309343
LeftHand 1.981431 -0.000000 4.334135
LeftHandThumb1 -26.253704 0.000000 33.147579
RightShoulder -8.145207 3.198901 -31.666715
RightArm 12.309531 14.731816 38.606653
RightForeArm -15.727476 -0.000000 1.238598
RightHand 0.719142 -0.000000 1.346823
RightHandThumb1 -24.326973 -0.000000 -32.862282
LeftUpLeg -6.072150 -7.173840 1.533393
LeftLeg -0.655516 -0.000000 0.000000
LeftFoot -7.601076 9.418189 -17.427477
LeftToeBase -6.159969 -0.000000 0.000000
RightUpLeg -4.269709 7.296382 3.228778
RightLeg -3.806395 -0.000000 0.000000
RightFoot -5.451547 -14.124864 7.277408
RightToeBase -3.846493 -0.000000 0.000000
819
root 1.222938 32.982899 14.154276 10.366849 0.017533 -1.287543
Spine -13.572100 -6.465668 0.323809
Head 8.812750 -2.666414 -0.932122
LeftShoulder -23.614378 41.209939 18.753637
LeftArm 58.952506 -58.838847 -61.060516
LeftForeArm 11.009357 -0.000000 -2.351216
LeftHand 1.974452 0.000000 4.321744
LeftHandThumb1 -26.253704 0.000000 33.147579
RightShoulder -8.175742 3.174832 -31.654312
RightArm 12.309121 14.767627 38.580306
RightForeArm -15.803743 -0.000000 1.236838
RightHand 0.577387 -0.000000 1.427426
RightHandThumb1 -24.326973 -0.000000 -32.862282
LeftUpLeg -6.063792 -7.161462 1.537488
LeftLeg -0.672076 -0.000000 0.000000
LeftFoot -7.585868 9.379364 -17.406056
LeftToeBase -6.178600 -0.000000 0.000000
RightUpLeg -4.255902 7.275785 3.239222
RightLeg -3.815364 -0.000000 0.000000
RightFoot -5.542176 -14.103588 7.381886
RightToeBase -3.641414 -0.000000 0.000000
820
root 1.210841 32.981951 14.165069 10.379707 0.056468 -1.292962
Spine -13.622584 -6.481900 0.347271
Head 8.858891 -2.684837 -0.892412
LeftShoulder -23.585880 41.171806 18.799790
LeftArm 58.910134 -58.809898 -61.027619
LeftForeArm 10.994750 -0.000000 -2.363874
LeftHand 1.915909 -0.000000 4.363331
LeftHandThumb1 -26.253704 0.000000 33.147579
RightShoulder -8.188939 3.175384 -31.641394
RightArm 12.272624 14.776260 38.546345
RightForeArm -15.809936 -0.000000 1.246375
RightHand 0.603833 -0.000000 1.375132
RightHandThumb1 -24.326973 -0.000000 -32.862282
LeftUpLeg -6.038679 -7.196008 1.557451
LeftLeg -0.717922 -0.000000 0.000000
LeftFoot -7.590083 9.458837 -17.327498
LeftToeBase -6.190798 -0.000000 0.000000
RightUpLeg -4.251217 7.247523 3.279830
RightLeg -3.817299 -0.000000 0.000000
RightFoot -5.466772 -14.176665 7.228711
RightToeBase -3.861322 -0.000000 0.000000
821
root 1.204553 32.981737 14.175152 10.384639 0.107496 -1.278931
Spine -13.663638 -6.512584 0.375640
Head 8.903104 -2.710679 -0.894397
LeftShoulder -23.578965 41.164696 18.802542
LeftArm 58.933583 -58.804299 -61.075161
LeftForeArm 11.001789 -0.000000 -2.352127
LeftHand 1.958458 0.000000 4.420052
LeftHandThumb1 -26.253704 0.000000 33.147579
RightShoulder -8.192248 3.207083 -31.646698
RightArm 12.210955 14.757609 38.497670
RightForeArm -15.775233 0.000000 1.271561
RightHand 0.614776 -0.000000 1.390294
RightHandThumb1 -24.326973 -0.000000 -32.862282
LeftUpLeg -6.029301 -7.200130 1.552231
LeftLeg -0.721471 -0.000000 0.000000
LeftFoot -7.588522 9.444557 -17.304784
LeftToeBase -6.157146 -0.000000 0.000000
RightUpLeg -4.230751 7.217839 3.288325
RightLeg -3.824685 -0.000000 0.000000
RightFoot -5.533636 -14.176554 7.294444
RightToeBase -3.680386 -0.000000 0.000000
